# xmcd
#
# Track frame offsets: 
#        150
#        28737
#        48062
#        68758
#        82843
#        105740
#        128146
#        142810
#        163500
#        185425
#
# Disc length: 2839 seconds
#
# Revision: 0
# Processed by: cddbd v1.5.2PL0 Copyright (c) Steve Scherf et al.
# Submitted via: ExactAudioCopyFreeDBPlugin 1.0
#
DISCID=760b150a
DTITLE=Arc Iris - Moon Saloon
DYEAR=2016
DGENRE=Pop
TTITLE0=Kaleidoscope
TTITLE1=Kingdom Come
TTITLE2=Paint With The Sun
TTITLE3=Pretending
TTITLE4=She Arose
TTITLE5=Lilly
TTITLE6=Johnny
TTITLE7=Saturation Brain
TTITLE8=Rainy Days
TTITLE9=Moon Saloon
EXTD=
EXTT0=
EXTT1=
EXTT2=
EXTT3=
EXTT4=
EXTT5=
EXTT6=
EXTT7=
EXTT8=
EXTT9=
PLAYORDER=
